<svg xmlns="http://www.w3.org/2000/svg" width="101" height="25.977" viewBox="0 0 101 25.977">
  <g id="logo" transform="translate(0 -0.023)">
    <text id="Planguru" transform="translate(32 21)" fill="#7540ee" font-size="18" font-family="MaisonNeue-Demi, Maison Neue" font-weight="300" letter-spacing="0.016em"><tspan x="0" y="0">Lumiere</tspan></text>
    <g id="cheque-3">
      <path id="Shape" d="M18,20.976a1.5,1.5,0,0,0-3,0v2.25a.75.75,0,0,1-.751.751H.75A.749.749,0,0,1,0,23.226v-2.25a3,3,0,0,1,3-3H6V.75A.749.749,0,0,1,6.75,0h16.5A.75.75,0,0,1,24,.75V20.976a3,3,0,1,1-6,0Z" transform="translate(0 0.023)" fill="#7540ee"/>
    </g>
  </g>
</svg>
